<svg width="62" height="62" viewBox="0 0 62 62" fill="none" xmlns="http://www.w3.org/2000/svg">
<path d="M33.5833 56.8332H12.9166C7.74996 56.8332 5.16663 54.2498 5.16663 49.0832V28.4165C5.16663 23.2498 7.74996 20.6665 12.9166 20.6665H25.8333V49.0832C25.8333 54.2498 28.4166 56.8332 33.5833 56.8332Z" stroke="#AD8E67" stroke-width="1.5" stroke-miterlimit="10" stroke-linecap="round" stroke-linejoin="round"/>
<path d="M26.1174 10.3335C25.9108 11.1085 25.8333 11.961 25.8333 12.9168V20.6668H12.9166V15.5002C12.9166 12.6585 15.2416 10.3335 18.0833 10.3335H26.1174Z" stroke="#AD8E67" stroke-width="1.5" stroke-miterlimit="10" stroke-linecap="round" stroke-linejoin="round"/>
<path d="M36.1666 20.6665V33.5832" stroke="#AD8E67" stroke-width="1.5" stroke-miterlimit="10" stroke-linecap="round" stroke-linejoin="round"/>
<path d="M46.5 20.6665V33.5832" stroke="#AD8E67" stroke-width="1.5" stroke-miterlimit="10" stroke-linecap="round" stroke-linejoin="round"/>
<path d="M43.9166 43.9165H38.75C37.3291 43.9165 36.1666 45.079 36.1666 46.4998V56.8332H46.5V46.4998C46.5 45.079 45.3375 43.9165 43.9166 43.9165Z" stroke="#AD8E67" stroke-width="1.5" stroke-miterlimit="10" stroke-linecap="round" stroke-linejoin="round"/>
<path d="M15.5 33.5835V43.9168" stroke="#AD8E67" stroke-width="1.5" stroke-miterlimit="10" stroke-linecap="round" stroke-linejoin="round"/>
<path d="M25.8334 49.0832V12.9165C25.8334 7.74984 28.4167 5.1665 33.5834 5.1665H49.0834C54.25 5.1665 56.8334 7.74984 56.8334 12.9165V49.0832C56.8334 54.2498 54.25 56.8332 49.0834 56.8332H33.5834C28.4167 56.8332 25.8334 54.2498 25.8334 49.0832Z" stroke="#AD8E67" stroke-width="1.5" stroke-miterlimit="10" stroke-linecap="round" stroke-linejoin="round"/>
</svg>
