<svg width="62" height="62" viewBox="0 0 62 62" fill="none" xmlns="http://www.w3.org/2000/svg">
<path d="M32.2916 56.8336H10.5399C7.54328 56.8336 5.08911 54.4311 5.08911 51.4861V13.1494C5.08911 6.38108 10.1266 3.30692 16.3008 6.32942L27.7708 11.9611C30.2508 13.1753 32.2916 16.4044 32.2916 19.1427V56.8336Z" stroke="#AD8E67" stroke-width="1.5" stroke-linecap="round" stroke-linejoin="round"/>
<path d="M56.7558 38.9051V48.6701C56.7558 54.2501 54.1725 56.8335 48.5925 56.8335H32.2916V26.9185L33.5058 27.1768L45.1308 29.786L50.375 30.9485C53.785 31.6976 56.575 33.4543 56.73 38.4143C56.7558 38.5693 56.7558 38.7243 56.7558 38.9051Z" stroke="#AD8E67" stroke-width="1.5" stroke-linecap="round" stroke-linejoin="round"/>
<path d="M14.2083 23.2505H23.1724" stroke="#AD8E67" stroke-width="1.5" stroke-linecap="round" stroke-linejoin="round"/>
<path d="M14.2083 33.5835H23.1724" stroke="#AD8E67" stroke-width="1.5" stroke-linecap="round" stroke-linejoin="round"/>
<path d="M45.1307 29.7859V38.1043C45.1307 41.3076 42.5216 43.9168 39.3182 43.9168C36.1149 43.9168 33.5057 41.3076 33.5057 38.1043V27.1768L45.1307 29.7859Z" stroke="#AD8E67" stroke-width="1.5" stroke-linecap="round" stroke-linejoin="round"/>
<path d="M56.7299 38.4145C56.5749 41.4628 54.0432 43.917 50.9432 43.917C47.7399 43.917 45.1307 41.3078 45.1307 38.1045V29.7861L50.3749 30.9486C53.7849 31.6978 56.5749 33.4545 56.7299 38.4145Z" stroke="#AD8E67" stroke-width="1.5" stroke-linecap="round" stroke-linejoin="round"/>
</svg>
