<svg width="62" height="62" viewBox="0 0 62 62" fill="none" xmlns="http://www.w3.org/2000/svg">
<path d="M17.3083 46.4998H10.7209C7.02669 46.4998 5.16663 44.6398 5.16663 40.9456V10.7207C5.16663 7.02657 7.02669 5.1665 10.7209 5.1665H21.8292C25.5233 5.1665 27.3832 7.02657 27.3832 10.7207V15.4998" stroke="#AD8E67" stroke-width="1.5" stroke-miterlimit="10" stroke-linecap="round" stroke-linejoin="round"/>
<path d="M44.8725 21.7516V50.5817C44.8725 54.7409 42.8059 56.8333 38.6467 56.8333H23.56C19.4008 56.8333 17.3083 54.7409 17.3083 50.5817V21.7516C17.3083 17.5925 19.4008 15.5 23.56 15.5H38.6467C42.8059 15.5 44.8725 17.5925 44.8725 21.7516Z" stroke="#AD8E67" stroke-width="1.5" stroke-miterlimit="10" stroke-linecap="round" stroke-linejoin="round"/>
<path d="M34.6167 15.4998V10.7207C34.6167 7.02657 36.4766 5.1665 40.1708 5.1665H51.2791C54.9732 5.1665 56.8333 7.02657 56.8333 10.7207V40.9456C56.8333 44.6398 54.9732 46.4998 51.2791 46.4998H44.8725" stroke="#AD8E67" stroke-width="1.5" stroke-miterlimit="10" stroke-linecap="round" stroke-linejoin="round"/>
<path d="M25.8334 28.4165H36.1667" stroke="#AD8E67" stroke-width="1.5" stroke-miterlimit="10" stroke-linecap="round" stroke-linejoin="round"/>
<path d="M25.8334 36.1665H36.1667" stroke="#AD8E67" stroke-width="1.5" stroke-miterlimit="10" stroke-linecap="round" stroke-linejoin="round"/>
<path d="M31 56.8335V49.0835" stroke="#AD8E67" stroke-width="1.5" stroke-miterlimit="10" stroke-linecap="round" stroke-linejoin="round"/>
</svg>
