<svg width="10" height="10" viewBox="0 0 10 10" fill="none" xmlns="http://www.w3.org/2000/svg">
<path d="M10 8.165C10 8.345 9.95994 8.53 9.87481 8.71C9.78968 8.89 9.67952 9.06 9.5343 9.22C9.28893 9.49 9.01853 9.685 8.71307 9.81C8.41262 9.935 8.08713 10 7.73661 10C7.22584 10 6.68002 9.88 6.10416 9.635C5.52829 9.39 4.95243 9.06 4.38157 8.645C3.80571 8.225 3.25989 7.76 2.73911 7.245C2.22334 6.725 1.75764 6.18 1.34201 5.61C0.931397 5.04 0.600901 4.47 0.360541 3.905C0.12018 3.335 0 2.79 0 2.27C0 1.93 0.0600901 1.605 0.18027 1.305C0.300451 1 0.490736 0.72 0.756134 0.47C1.07661 0.155 1.42714 0 1.7977 0C1.93791 0 2.07812 0.03 2.20331 0.09C2.3335 0.15 2.44867 0.24 2.53881 0.37L3.70055 2.005C3.79069 2.13 3.85578 2.245 3.90085 2.355C3.94592 2.46 3.97096 2.565 3.97096 2.66C3.97096 2.78 3.9359 2.9 3.8658 3.015C3.8007 3.13 3.70556 3.25 3.58538 3.37L3.20481 3.765C3.14972 3.82 3.12469 3.885 3.12469 3.965C3.12469 4.005 3.12969 4.04 3.13971 4.08C3.15473 4.12 3.16975 4.15 3.17977 4.18C3.26991 4.345 3.42514 4.56 3.64547 4.82C3.87081 5.08 4.11117 5.345 4.37156 5.61C4.64196 5.875 4.90235 6.12 5.16775 6.345C5.42814 6.565 5.64347 6.715 5.81372 6.805C5.83876 6.815 5.8688 6.83 5.90386 6.845C5.94392 6.86 5.98398 6.865 6.02904 6.865C6.11417 6.865 6.17927 6.835 6.23435 6.78L6.61492 6.405C6.74011 6.28 6.86029 6.185 6.97546 6.125C7.09064 6.055 7.20581 6.02 7.331 6.02C7.42614 6.02 7.52629 6.04 7.63646 6.085C7.74662 6.13 7.86179 6.195 7.98698 6.28L9.64447 7.455C9.77466 7.545 9.8648 7.65 9.91988 7.775C9.96995 7.9 10 8.025 10 8.165Z" fill="#AD8E67"/>
</svg>
