<svg width="54" height="54" viewBox="0 0 54 54" fill="none" xmlns="http://www.w3.org/2000/svg">
<circle cx="27" cy="27" r="27" fill="#141515"/>
<path d="M24.3334 33.6002H19.28C14.7867 33.6002 13.6667 32.4802 13.6667 27.9869V19.9869C13.6667 15.4935 14.7867 14.3735 19.28 14.3735H33.32C37.8134 14.3735 38.9334 15.4935 38.9334 19.9869" stroke="white" stroke-width="1.5" stroke-linecap="round" stroke-linejoin="round"/>
<path d="M24.3333 39.6268V33.6001" stroke="white" stroke-width="1.5" stroke-linecap="round" stroke-linejoin="round"/>
<path d="M13.6667 28.2666H24.3334" stroke="white" stroke-width="1.5" stroke-linecap="round" stroke-linejoin="round"/>
<path d="M19.9867 39.6265H24.3334" stroke="white" stroke-width="1.5" stroke-linecap="round" stroke-linejoin="round"/>
<path d="M40.3333 28.0668V35.6801C40.3333 38.8401 39.5467 39.6268 36.3867 39.6268H31.6533C28.4933 39.6268 27.7067 38.8401 27.7067 35.6801V28.0668C27.7067 24.9068 28.4933 24.1201 31.6533 24.1201H36.3867C39.5467 24.1201 40.3333 24.9068 40.3333 28.0668Z" stroke="white" stroke-width="1.5" stroke-linecap="round" stroke-linejoin="round"/>
<path d="M33.9927 35.3332H34.0047" stroke="white" stroke-width="2" stroke-linecap="round" stroke-linejoin="round"/>
</svg>
