<svg width="54" height="54" viewBox="0 0 54 54" fill="none" xmlns="http://www.w3.org/2000/svg">
<circle cx="27" cy="27" r="27" fill="#141515"/>
<path d="M34.9733 25.3867V30.72C34.9733 31.0667 34.96 31.4 34.92 31.72C34.6133 35.32 32.4933 37.1066 28.5866 37.1066H28.0533C27.72 37.1066 27.4 37.2667 27.2 37.5333L25.6 39.6667C24.8933 40.6133 23.7466 40.6133 23.04 39.6667L21.4399 37.5333C21.2666 37.3067 20.88 37.1066 20.5866 37.1066H20.0533C15.8 37.1066 13.6666 36.0533 13.6666 30.72V25.3867C13.6666 21.48 15.4666 19.36 19.0533 19.0533C19.3733 19.0133 19.7066 19 20.0533 19H28.5866C32.84 19 34.9733 21.1333 34.9733 25.3867Z" stroke="white" stroke-width="1.5" stroke-miterlimit="10" stroke-linecap="round" stroke-linejoin="round"/>
<path d="M40.3067 20.0532V25.3865C40.3067 29.3065 38.5067 31.4132 34.92 31.7198C34.96 31.3998 34.9733 31.0665 34.9733 30.7198V25.3865C34.9733 21.1332 32.84 18.9998 28.5867 18.9998H20.0533C19.7067 18.9998 19.3733 19.0132 19.0533 19.0532C19.36 15.4665 21.48 13.6665 25.3867 13.6665H33.92C38.1733 13.6665 40.3067 15.7998 40.3067 20.0532Z" stroke="white" stroke-width="1.5" stroke-miterlimit="10" stroke-linecap="round" stroke-linejoin="round"/>
<path d="M28.994 28.6667H29.006" stroke="white" stroke-width="2" stroke-linecap="round" stroke-linejoin="round"/>
<path d="M24.3273 28.6667H24.3393" stroke="white" stroke-width="2" stroke-linecap="round" stroke-linejoin="round"/>
<path d="M19.6607 28.6667H19.6727" stroke="white" stroke-width="2" stroke-linecap="round" stroke-linejoin="round"/>
</svg>
