<svg width="54" height="54" viewBox="0 0 54 54" fill="none" xmlns="http://www.w3.org/2000/svg">
<circle cx="27" cy="27" r="27" fill="#141515"/>
<path d="M22.4268 31.3601L31.1467 22.6401" stroke="white" stroke-width="1.5" stroke-linecap="round" stroke-linejoin="round"/>
<path d="M22.9733 24.8269C23.8791 24.8269 24.6133 24.0926 24.6133 23.1869C24.6133 22.2811 23.8791 21.5469 22.9733 21.5469C22.0676 21.5469 21.3333 22.2811 21.3333 23.1869C21.3333 24.0926 22.0676 24.8269 22.9733 24.8269Z" stroke="white" stroke-width="1.5" stroke-linecap="round" stroke-linejoin="round"/>
<path d="M31.6933 32.4533C32.5991 32.4533 33.3333 31.7191 33.3333 30.8133C33.3333 29.9076 32.5991 29.1733 31.6933 29.1733C30.7876 29.1733 30.0533 29.9076 30.0533 30.8133C30.0533 31.7191 30.7876 32.4533 31.6933 32.4533Z" stroke="white" stroke-width="1.5" stroke-linecap="round" stroke-linejoin="round"/>
<path d="M27 40.3332C34.3638 40.3332 40.3334 34.3636 40.3334 26.9998C40.3334 19.636 34.3638 13.6665 27 13.6665C19.6362 13.6665 13.6667 19.636 13.6667 26.9998C13.6667 34.3636 19.6362 40.3332 27 40.3332Z" stroke="white" stroke-width="1.5" stroke-linecap="round" stroke-linejoin="round"/>
</svg>
