<svg width="54" height="54" viewBox="0 0 54 54" fill="none" xmlns="http://www.w3.org/2000/svg">
<circle cx="27" cy="27" r="27" fill="#141515"/>
<path d="M39.84 30.6668C39.84 31.8535 39.5067 32.9735 38.92 33.9335C37.8267 35.7735 35.8133 37.0002 33.5067 37.0002C31.2 37.0002 29.1867 35.7602 28.0933 33.9335C27.5067 32.9868 27.1733 31.8535 27.1733 30.6668C27.1733 27.1735 30.0133 24.3335 33.5067 24.3335C37 24.3335 39.84 27.1735 39.84 30.6668Z" stroke="white" stroke-width="1.5" stroke-miterlimit="10" stroke-linecap="round" stroke-linejoin="round"/>
<path d="M35.8801 30.6401H31.1467" stroke="white" stroke-width="1.5" stroke-miterlimit="10" stroke-linecap="round" stroke-linejoin="round"/>
<path d="M33.5067 28.3335V33.0668" stroke="white" stroke-width="1.5" stroke-miterlimit="10" stroke-linecap="round" stroke-linejoin="round"/>
<path d="M38.5867 16.3599V19.3198C38.5867 20.3998 37.9067 21.7465 37.24 22.4265L34.8933 24.4932C34.4533 24.3865 33.9867 24.3332 33.5067 24.3332C30.0133 24.3332 27.1733 27.1732 27.1733 30.6665C27.1733 31.8532 27.5067 32.9732 28.0933 33.9332C28.5867 34.7599 29.2667 35.4665 30.0933 35.9731V36.4265C30.0933 37.2398 29.56 38.3198 28.88 38.7198L27 39.9332C25.2533 41.0132 22.8267 39.7998 22.8267 37.6398V30.5065C22.8267 29.5598 22.28 28.3465 21.7467 27.6799L16.6267 22.2931C15.96 21.6131 15.4133 20.3999 15.4133 19.5999V16.4932C15.4133 14.8798 16.6267 13.6665 18.1067 13.6665H35.8933C37.3733 13.6665 38.5867 14.8799 38.5867 16.3599Z" stroke="white" stroke-width="1.5" stroke-miterlimit="10" stroke-linecap="round" stroke-linejoin="round"/>
</svg>
