<svg width="54" height="54" viewBox="0 0 54 54" fill="none" xmlns="http://www.w3.org/2000/svg">
<circle cx="27" cy="27" r="27" fill="#141515"/>
<path d="M40.3333 28.3332V22.9998C40.3333 16.3332 37.6666 13.6665 31 13.6665H23C16.3333 13.6665 13.6666 16.3332 13.6666 22.9998V30.9998C13.6666 37.6665 16.3333 40.3332 23 40.3332H28.3333" stroke="white" stroke-width="1.5" stroke-linecap="round" stroke-linejoin="round"/>
<path d="M20.7733 30.3202L23.9467 26.2002C24.4 25.6135 25.24 25.5069 25.8267 25.9602L28.2667 27.8802C28.8533 28.3335 29.6933 28.2269 30.1466 27.6535L33.2267 23.6802" stroke="white" stroke-width="1.5" stroke-linecap="round" stroke-linejoin="round"/>
<path d="M36.9733 32.0934L37.3466 32.8534C37.5333 33.2267 37.9999 33.5734 38.4133 33.6534L38.92 33.7334C40.44 33.9867 40.8 35.1067 39.7066 36.2134L39.2399 36.6801C38.9333 37.0001 38.76 37.6134 38.8533 38.0401L38.92 38.3201C39.3333 40.1601 38.36 40.8667 36.76 39.9067L36.4133 39.7067C35.9999 39.4667 35.3333 39.4667 34.92 39.7067L34.5733 39.9067C32.9599 40.8801 31.9866 40.1601 32.4133 38.3201L32.4799 38.0401C32.5733 37.6134 32.4 37.0001 32.0933 36.6801L31.6266 36.2134C30.5333 35.1067 30.8933 33.9867 32.4133 33.7334L32.92 33.6534C33.32 33.5867 33.7999 33.2267 33.9866 32.8534L34.3599 32.0934C35.0799 30.6401 36.2533 30.6401 36.9733 32.0934Z" stroke="white" stroke-width="1.5" stroke-linecap="round" stroke-linejoin="round"/>
</svg>
