<svg width="54" height="54" viewBox="0 0 54 54" fill="none" xmlns="http://www.w3.org/2000/svg">
<circle cx="27" cy="27" r="27" fill="#141515"/>
<path d="M20.9734 35.4668L25.1067 38.6668C25.6401 39.2001 26.8401 39.4668 27.6401 39.4668H32.7067C34.3067 39.4668 36.0401 38.2668 36.4401 36.6668L39.6401 26.9335C40.3067 25.0668 39.1067 23.4668 37.1067 23.4668H31.7734C30.9734 23.4668 30.3067 22.8001 30.4401 21.8668L31.1067 17.6001C31.3734 16.4001 30.5734 15.0668 29.3734 14.6668C28.3067 14.2668 26.9734 14.8001 26.4401 15.6001L20.9734 23.7335" stroke="white" stroke-width="1.5" stroke-miterlimit="10"/>
<path d="M14.1733 35.4667V22.4C14.1733 20.5334 14.9733 19.8667 16.84 19.8667H18.1733C20.04 19.8667 20.84 20.5334 20.84 22.4V35.4667C20.84 37.3334 20.04 38 18.1733 38H16.84C14.9733 38 14.1733 37.3334 14.1733 35.4667Z" stroke="white" stroke-width="1.5" stroke-linecap="round" stroke-linejoin="round"/>
</svg>
